<svg viewBox="0 0 400 225" xmlns="http://www.w3.org/2000/svg">
  <defs>
    <linearGradient id="bg3" x1="0%" y1="0%" x2="100%" y2="100%"><stop offset="0%" stop-color="#021510"/><stop offset="100%" stop-color="#052e1c"/></linearGradient>
    <radialGradient id="spot3" cx="65%" cy="40%" r="50%"><stop offset="0%" stop-color="#10b981" stop-opacity=".4"/><stop offset="100%" stop-color="#10b981" stop-opacity="0"/></radialGradient>
    <filter id="shadow3"><feDropShadow dx="0" dy="8" stdDeviation="10" flood-color="#059669" flood-opacity=".5"/></filter>
    <linearGradient id="rocketGrad" x1="0%" y1="0%" x2="0%" y2="100%"><stop offset="0%" stop-color="#6ee7b7"/><stop offset="100%" stop-color="#059669"/></linearGradient>
  </defs>
  <rect width="400" height="225" fill="url(#bg3)"/>
  <rect width="400" height="225" fill="url(#spot3)"/>
  <line x1="230" y1="60" x2="390" y2="60" stroke="#10b981" stroke-width=".5" stroke-opacity=".2"/>
  <line x1="230" y1="90" x2="390" y2="90" stroke="#10b981" stroke-width=".5" stroke-opacity=".2"/>
  <line x1="230" y1="120" x2="390" y2="120" stroke="#10b981" stroke-width=".5" stroke-opacity=".2"/>
  <line x1="230" y1="150" x2="390" y2="150" stroke="#10b981" stroke-width=".5" stroke-opacity=".2"/>
  <line x1="260" y1="55" x2="260" y2="165" stroke="#10b981" stroke-width=".5" stroke-opacity=".2"/>
  <line x1="300" y1="55" x2="300" y2="165" stroke="#10b981" stroke-width=".5" stroke-opacity=".2"/>
  <line x1="340" y1="55" x2="340" y2="165" stroke="#10b981" stroke-width=".5" stroke-opacity=".2"/>
  <polyline points="245,155 270,142 300,125 330,100 360,72 385,50" fill="none" stroke="#10b981" stroke-width="2.5" stroke-linecap="round" stroke-linejoin="round"/>
  <polygon points="245,155 270,142 300,125 330,100 360,72 385,50 385,165 245,165" fill="#10b981" fill-opacity=".08"/>
  <circle cx="270" cy="142" r="4" fill="#10b981" filter="url(#shadow3)"/>
  <circle cx="300" cy="125" r="4" fill="#10b981" filter="url(#shadow3)"/>
  <circle cx="330" cy="100" r="4" fill="#10b981" filter="url(#shadow3)"/>
  <circle cx="360" cy="72" r="5" fill="#6ee7b7" filter="url(#shadow3)"/>
  <g transform="translate(345, 38) rotate(-35)">
    <ellipse cx="0" cy="0" rx="11" ry="22" fill="url(#rocketGrad)" filter="url(#shadow3)"/>
    <circle cx="0" cy="-4" r="5" fill="#0f172a" stroke="#6ee7b7" stroke-width="1.5"/>
    <circle cx="0" cy="-4" r="3" fill="#1e3a4a"/>
    <polygon points="-11,8 -18,20 -5,14" fill="#059669"/>
    <polygon points="11,8 18,20 5,14" fill="#059669"/>
    <ellipse cx="0" cy="26" rx="6" ry="10" fill="#f97316" fill-opacity=".85"/>
    <ellipse cx="0" cy="24" rx="3.5" ry="6" fill="#fbbf24"/>
  </g>
  <rect x="22" y="25" width="80" height="22" rx="5" fill="#10b981"/>
  <text x="62" y="40" text-anchor="middle" font-family="Arial,sans-serif" font-size="9" font-weight="900" fill="#fff" letter-spacing="1.5">CAREER TALK</text>
  <text x="22" y="84" font-family="Arial,sans-serif" font-size="26" font-weight="900" fill="#fff" letter-spacing="-1">커리어</text>
  <text x="22" y="112" font-family="Arial,sans-serif" font-size="18" font-weight="900" fill="#6ee7b7" letter-spacing="-0.5">성장 토크</text>
  <text x="22" y="146" font-family="sans-serif" font-size="11.5" fill="rgba(255,255,255,.55)">현직자가 말하는 진짜</text>
  <text x="22" y="162" font-family="sans-serif" font-size="11.5" fill="rgba(255,255,255,.55)">커리어 성장 이야기</text>
  <rect x="22" y="192" width="36" height="3" rx="1.5" fill="#10b981"/>
</svg>
