<svg viewBox="0 0 400 225" xmlns="http://www.w3.org/2000/svg">
  <defs>
    <linearGradient id="bg1" x1="0%" y1="0%" x2="100%" y2="100%"><stop offset="0%" stop-color="#0a0a1a"/><stop offset="100%" stop-color="#0f1f3d"/></linearGradient>
    <radialGradient id="spot1" cx="62%" cy="30%" r="45%"><stop offset="0%" stop-color="#4f8eff" stop-opacity=".55"/><stop offset="100%" stop-color="#4f8eff" stop-opacity="0"/></radialGradient>
    <radialGradient id="glow1" cx="65%" cy="75%" r="30%"><stop offset="0%" stop-color="#fff" stop-opacity=".12"/><stop offset="100%" stop-color="#fff" stop-opacity="0"/></radialGradient>
    <filter id="shadow1"><feDropShadow dx="0" dy="6" stdDeviation="8" flood-color="#000" flood-opacity=".6"/></filter>
  </defs>
  <rect width="400" height="225" fill="url(#bg1)"/>
  <rect width="400" height="225" fill="url(#spot1)"/>
  <rect width="400" height="225" fill="url(#glow1)"/>
  <circle cx="300" cy="112" r="90" fill="none" stroke="#4f8eff" stroke-width="1" stroke-opacity=".12"/>
  <circle cx="300" cy="112" r="65" fill="none" stroke="#4f8eff" stroke-width="1" stroke-opacity=".1"/>
  <rect x="290" y="145" width="6" height="50" rx="3" fill="#334155"/>
  <rect x="272" y="188" width="42" height="6" rx="3" fill="#334155"/>
  <ellipse cx="293" cy="118" rx="18" ry="28" fill="#1e293b" filter="url(#shadow1)"/>
  <ellipse cx="293" cy="118" rx="15" ry="25" fill="#334155"/>
  <ellipse cx="293" cy="118" rx="13" ry="23" fill="none" stroke="#4f8eff" stroke-width="1" stroke-opacity=".4"/>
  <line x1="280" y1="108" x2="306" y2="108" stroke="#4f8eff" stroke-width=".7" stroke-opacity=".3"/>
  <line x1="280" y1="114" x2="306" y2="114" stroke="#4f8eff" stroke-width=".7" stroke-opacity=".3"/>
  <line x1="280" y1="120" x2="306" y2="120" stroke="#4f8eff" stroke-width=".7" stroke-opacity=".3"/>
  <line x1="280" y1="126" x2="306" y2="126" stroke="#4f8eff" stroke-width=".7" stroke-opacity=".3"/>
  <ellipse cx="287" cy="108" rx="5" ry="9" fill="#fff" fill-opacity=".1"/>
  <path d="M320 100 Q330 112 320 124" stroke="#4f8eff" stroke-width="2.5" fill="none" stroke-opacity=".6" stroke-linecap="round"/>
  <path d="M328 94 Q342 112 328 130" stroke="#4f8eff" stroke-width="2" fill="none" stroke-opacity=".4" stroke-linecap="round"/>
  <path d="M336 88 Q354 112 336 136" stroke="#4f8eff" stroke-width="1.5" fill="none" stroke-opacity=".25" stroke-linecap="round"/>
  <circle cx="350" cy="55" r="2.5" fill="#4f8eff" opacity=".5"/>
  <circle cx="370" cy="80" r="1.5" fill="#4f8eff" opacity=".35"/>
  <circle cx="360" cy="160" r="2" fill="#4f8eff" opacity=".3"/>
  <rect x="22" y="25" width="64" height="22" rx="5" fill="#4f8eff"/>
  <text x="54" y="40" text-anchor="middle" font-family="Arial,sans-serif" font-size="9" font-weight="900" fill="#fff" letter-spacing="1.5">KEYNOTE</text>
  <text x="22" y="84" font-family="Arial,sans-serif" font-size="26" font-weight="900" fill="#fff" letter-spacing="-1">기조강연</text>
  <text x="22" y="112" font-family="Arial,sans-serif" font-size="18" font-weight="900" fill="#4f8eff" letter-spacing="-0.5">특별 세션</text>
  <text x="22" y="146" font-family="sans-serif" font-size="11.5" fill="rgba(255,255,255,.55)">업계 최고 전문가와의</text>
  <text x="22" y="162" font-family="sans-serif" font-size="11.5" fill="rgba(255,255,255,.55)">심층 대화를 경험하세요</text>
  <rect x="22" y="192" width="36" height="3" rx="1.5" fill="#4f8eff"/>
</svg>
