<svg viewBox="0 0 400 225" xmlns="http://www.w3.org/2000/svg">
  <defs>
    <linearGradient id="bg5" x1="0%" y1="0%" x2="100%" y2="100%"><stop offset="0%" stop-color="#0c1a3a"/><stop offset="100%" stop-color="#0f2557"/></linearGradient>
    <radialGradient id="spot5" cx="63%" cy="40%" r="50%"><stop offset="0%" stop-color="#f59e0b" stop-opacity=".4"/><stop offset="100%" stop-color="#f59e0b" stop-opacity="0"/></radialGradient>
    <radialGradient id="bulbGlow" cx="50%" cy="40%" r="55%"><stop offset="0%" stop-color="#fbbf24" stop-opacity=".7"/><stop offset="100%" stop-color="#fbbf24" stop-opacity="0"/></radialGradient>
    <filter id="bulbShadow"><feDropShadow dx="0" dy="0" stdDeviation="12" flood-color="#fbbf24" flood-opacity=".6"/></filter>
  </defs>
  <rect width="400" height="225" fill="url(#bg5)"/>
  <rect width="400" height="225" fill="url(#spot5)"/>
  <circle cx="305" cy="100" r="55" fill="url(#bulbGlow)"/>
  <ellipse cx="305" cy="92" rx="32" ry="36" fill="#fbbf24" filter="url(#bulbShadow)"/>
  <ellipse cx="305" cy="92" rx="28" ry="32" fill="#fde68a"/>
  <path d="M295 92 Q300 82 305 92 Q310 82 315 92" stroke="#f97316" stroke-width="2" fill="none" stroke-linecap="round"/>
  <ellipse cx="296" cy="80" rx="7" ry="10" fill="#fff" fill-opacity=".4"/>
  <rect x="298" y="124" width="14" height="8" rx="2" fill="#d97706"/>
  <rect x="296" y="130" width="18" height="6" rx="2" fill="#b45309"/>
  <rect x="298" y="134" width="14" height="6" rx="2" fill="#92400e"/>
  <line x1="305" y1="48" x2="305" y2="36" stroke="#fbbf24" stroke-width="2.5" stroke-linecap="round" stroke-opacity=".7"/>
  <line x1="338" y1="60" x2="346" y2="52" stroke="#fbbf24" stroke-width="2" stroke-linecap="round" stroke-opacity=".6"/>
  <line x1="272" y1="60" x2="264" y2="52" stroke="#fbbf24" stroke-width="2" stroke-linecap="round" stroke-opacity=".6"/>
  <line x1="348" y1="92" x2="360" y2="92" stroke="#fbbf24" stroke-width="2" stroke-linecap="round" stroke-opacity=".5"/>
  <line x1="262" y1="92" x2="250" y2="92" stroke="#fbbf24" stroke-width="2" stroke-linecap="round" stroke-opacity=".5"/>
  <rect x="248" y="160" width="40" height="26" rx="3" fill="#1d4ed8" transform="rotate(-5 268 173)"/>
  <rect x="250" y="158" width="40" height="4" rx="2" fill="#3b82f6" transform="rotate(-5 270 160)"/>
  <rect x="295" y="162" width="36" height="24" rx="3" fill="#7c3aed" transform="rotate(3 313 174)"/>
  <rect x="295" y="160" width="36" height="4" rx="2" fill="#a855f7" transform="rotate(3 313 162)"/>
  <rect x="337" y="158" width="32" height="26" rx="3" fill="#059669" transform="rotate(-2 353 171)"/>
  <rect x="337" y="156" width="32" height="4" rx="2" fill="#10b981" transform="rotate(-2 353 158)"/>
  <rect x="22" y="25" width="70" height="22" rx="5" fill="#d97706"/>
  <text x="57" y="40" text-anchor="middle" font-family="Arial,sans-serif" font-size="9" font-weight="900" fill="#fff" letter-spacing="1.5">MENTORING</text>
  <text x="22" y="84" font-family="Arial,sans-serif" font-size="26" font-weight="900" fill="#fff" letter-spacing="-1">1:1 멘토링</text>
  <text x="22" y="112" font-family="Arial,sans-serif" font-size="18" font-weight="900" fill="#fbbf24" letter-spacing="-0.5">심층 세션</text>
  <text x="22" y="146" font-family="sans-serif" font-size="11.5" fill="rgba(255,255,255,.55)">시니어 전문가와 함께하는</text>
  <text x="22" y="162" font-family="sans-serif" font-size="11.5" fill="rgba(255,255,255,.55)">맞춤형 성장 세션</text>
  <rect x="22" y="192" width="36" height="3" rx="1.5" fill="#fbbf24"/>
</svg>
