<svg viewBox="0 0 400 225" xmlns="http://www.w3.org/2000/svg">
  <defs>
    <linearGradient id="bg4" x1="0%" y1="0%" x2="100%" y2="100%"><stop offset="0%" stop-color="#0e0018"/><stop offset="100%" stop-color="#1a0030"/></linearGradient>
    <radialGradient id="spot4" cx="63%" cy="45%" r="52%"><stop offset="0%" stop-color="#e879f9" stop-opacity=".35"/><stop offset="100%" stop-color="#e879f9" stop-opacity="0"/></radialGradient>
    <filter id="nodeGlow"><feGaussianBlur stdDeviation="3" result="blur"/><feMerge><feMergeNode in="blur"/><feMergeNode in="SourceGraphic"/></feMerge></filter>
  </defs>
  <rect width="400" height="225" fill="url(#bg4)"/>
  <rect width="400" height="225" fill="url(#spot4)"/>
  <line x1="280" y1="80" x2="340" y2="60" stroke="#e879f9" stroke-width="1.2" stroke-opacity=".4"/>
  <line x1="280" y1="80" x2="360" y2="112" stroke="#e879f9" stroke-width="1.2" stroke-opacity=".4"/>
  <line x1="280" y1="80" x2="310" y2="148" stroke="#e879f9" stroke-width="1.2" stroke-opacity=".4"/>
  <line x1="340" y1="60" x2="360" y2="112" stroke="#e879f9" stroke-width="1" stroke-opacity=".3"/>
  <line x1="360" y1="112" x2="310" y2="148" stroke="#e879f9" stroke-width="1" stroke-opacity=".3"/>
  <line x1="340" y1="60" x2="385" y2="75" stroke="#e879f9" stroke-width=".8" stroke-opacity=".2"/>
  <line x1="360" y1="112" x2="390" y2="140" stroke="#e879f9" stroke-width=".8" stroke-opacity=".2"/>
  <circle cx="385" cy="75" r="5" fill="#4a1060" stroke="#e879f9" stroke-width="1.2" stroke-opacity=".4"/>
  <circle cx="390" cy="140" r="5" fill="#4a1060" stroke="#e879f9" stroke-width="1.2" stroke-opacity=".4"/>
  <circle cx="340" cy="60" r="10" fill="#2d0845" stroke="#e879f9" stroke-width="1.8" stroke-opacity=".7" filter="url(#nodeGlow)"/>
  <circle cx="360" cy="112" r="10" fill="#2d0845" stroke="#e879f9" stroke-width="1.8" stroke-opacity=".7" filter="url(#nodeGlow)"/>
  <circle cx="310" cy="148" r="10" fill="#2d0845" stroke="#e879f9" stroke-width="1.8" stroke-opacity=".7" filter="url(#nodeGlow)"/>
  <circle cx="340" cy="57" r="3" fill="#e879f9" opacity=".8"/>
  <path d="M334 66 Q340 62 346 66" stroke="#e879f9" stroke-width="1.5" fill="none" opacity=".8"/>
  <circle cx="360" cy="109" r="3" fill="#e879f9" opacity=".8"/>
  <path d="M354 118 Q360 114 366 118" stroke="#e879f9" stroke-width="1.5" fill="none" opacity=".8"/>
  <circle cx="310" cy="145" r="3" fill="#e879f9" opacity=".8"/>
  <path d="M304 154 Q310 150 316 154" stroke="#e879f9" stroke-width="1.5" fill="none" opacity=".8"/>
  <circle cx="280" cy="80" r="22" fill="#2d0845" stroke="#e879f9" stroke-width="2.5" filter="url(#nodeGlow)"/>
  <circle cx="280" cy="74" r="7" fill="#e879f9" opacity=".85"/>
  <path d="M262 94 Q280 86 298 94" stroke="#e879f9" stroke-width="2.5" fill="none" opacity=".85" stroke-linecap="round"/>
  <rect x="22" y="25" width="84" height="22" rx="5" fill="#c026d3"/>
  <text x="64" y="40" text-anchor="middle" font-family="Arial,sans-serif" font-size="9" font-weight="900" fill="#fff" letter-spacing="1.5">NETWORKING</text>
  <text x="22" y="84" font-family="Arial,sans-serif" font-size="26" font-weight="900" fill="#fff" letter-spacing="-1">함께하는</text>
  <text x="22" y="112" font-family="Arial,sans-serif" font-size="18" font-weight="900" fill="#e879f9" letter-spacing="-0.5">네트워킹</text>
  <text x="22" y="146" font-family="sans-serif" font-size="11.5" fill="rgba(255,255,255,.55)">같은 목표를 가진 사람들과</text>
  <text x="22" y="162" font-family="sans-serif" font-size="11.5" fill="rgba(255,255,255,.55)">의미 있는 연결을 만드세요</text>
  <rect x="22" y="192" width="36" height="3" rx="1.5" fill="#e879f9"/>
</svg>
