<svg viewBox="0 0 400 225" xmlns="http://www.w3.org/2000/svg">
  <defs>
    <linearGradient id="bg2" x1="0%" y1="0%" x2="100%" y2="100%"><stop offset="0%" stop-color="#130820"/><stop offset="100%" stop-color="#1e0d35"/></linearGradient>
    <radialGradient id="spot2" cx="65%" cy="40%" r="50%"><stop offset="0%" stop-color="#a855f7" stop-opacity=".45"/><stop offset="100%" stop-color="#a855f7" stop-opacity="0"/></radialGradient>
    <filter id="shadow2"><feDropShadow dx="0" dy="8" stdDeviation="10" flood-color="#7c3aed" flood-opacity=".5"/></filter>
  </defs>
  <rect width="400" height="225" fill="url(#bg2)"/>
  <rect width="400" height="225" fill="url(#spot2)"/>
  <polygon points="340,30 370,47 370,81 340,98 310,81 310,47" fill="none" stroke="#a855f7" stroke-width="1" stroke-opacity=".15"/>
  <rect x="240" y="48" width="130" height="82" rx="16" fill="#2d1b4e" filter="url(#shadow2)"/>
  <rect x="240" y="48" width="130" height="82" rx="16" fill="none" stroke="#a855f7" stroke-width="1.5" stroke-opacity=".5"/>
  <polygon points="268,130 255,152 285,130" fill="#2d1b4e"/>
  <polygon points="268,130 255,152 285,130" fill="none" stroke="#a855f7" stroke-width="1.5" stroke-opacity=".5"/>
  <rect x="248" y="54" width="114" height="6" rx="3" fill="#a855f7" fill-opacity=".15"/>
  <text x="305" y="98" text-anchor="middle" font-family="Arial,sans-serif" font-size="32" font-weight="900" fill="#c084fc" letter-spacing="-1">Q&amp;A</text>
  <text x="305" y="118" text-anchor="middle" font-family="sans-serif" font-size="10" fill="#a78bfa" letter-spacing="1">LIVE SESSION</text>
  <rect x="248" y="160" width="70" height="32" rx="10" fill="#3b1f6b" stroke="#a855f7" stroke-width="1" stroke-opacity=".4"/>
  <polygon points="260,192 250,205 275,192" fill="#3b1f6b"/>
  <text x="283" y="180" text-anchor="middle" font-family="sans-serif" font-size="10" fill="#c084fc">질문있어요!</text>
  <circle cx="232" cy="55" r="3" fill="#a855f7" opacity=".4"/>
  <circle cx="220" cy="80" r="1.5" fill="#a855f7" opacity=".3"/>
  <rect x="22" y="25" width="68" height="22" rx="5" fill="#a855f7"/>
  <text x="56" y="40" text-anchor="middle" font-family="Arial,sans-serif" font-size="9" font-weight="900" fill="#fff" letter-spacing="1.5">LIVE Q&amp;A</text>
  <text x="22" y="84" font-family="Arial,sans-serif" font-size="26" font-weight="900" fill="#fff" letter-spacing="-1">실시간</text>
  <text x="22" y="112" font-family="Arial,sans-serif" font-size="18" font-weight="900" fill="#c084fc" letter-spacing="-0.5">Q&amp;A 세션</text>
  <text x="22" y="146" font-family="sans-serif" font-size="11.5" fill="rgba(255,255,255,.55)">궁금한 건 뭐든지</text>
  <text x="22" y="162" font-family="sans-serif" font-size="11.5" fill="rgba(255,255,255,.55)">전문가가 직접 답해드립니다</text>
  <rect x="22" y="192" width="36" height="3" rx="1.5" fill="#a855f7"/>
</svg>
