<svg viewBox="0 0 400 225" xmlns="http://www.w3.org/2000/svg">
  <defs>
    <linearGradient id="bg6" x1="0%" y1="0%" x2="100%" y2="100%"><stop offset="0%" stop-color="#0a1a0a"/><stop offset="100%" stop-color="#0f2d0f"/></linearGradient>
    <radialGradient id="spot6" cx="63%" cy="42%" r="52%"><stop offset="0%" stop-color="#4ade80" stop-opacity=".35"/><stop offset="100%" stop-color="#4ade80" stop-opacity="0"/></radialGradient>
    <filter id="boardShadow"><feDropShadow dx="0" dy="10" stdDeviation="12" flood-color="#000" flood-opacity=".5"/></filter>
    <linearGradient id="boardGrad" x1="0%" y1="0%" x2="100%" y2="100%"><stop offset="0%" stop-color="#1e2d1e"/><stop offset="100%" stop-color="#162916"/></linearGradient>
  </defs>
  <rect width="400" height="225" fill="url(#bg6)"/>
  <rect width="400" height="225" fill="url(#spot6)"/>
  <rect x="232" y="42" width="150" height="108" rx="6" fill="#0f1f0f" filter="url(#boardShadow)"/>
  <rect x="232" y="42" width="150" height="108" rx="6" fill="url(#boardGrad)"/>
  <rect x="232" y="42" width="150" height="108" rx="6" fill="none" stroke="#4ade80" stroke-width="2" stroke-opacity=".4"/>
  <rect x="232" y="42" width="150" height="14" rx="6" fill="#1a3d1a"/>
  <rect x="232" y="50" width="150" height="6" fill="#1a3d1a"/>
  <rect x="280" y="66" width="40" height="18" rx="4" fill="#4ade80" fill-opacity=".2" stroke="#4ade80" stroke-width="1" stroke-opacity=".6"/>
  <text x="300" y="79" text-anchor="middle" font-family="sans-serif" font-size="8" fill="#4ade80" font-weight="700">START</text>
  <line x1="300" y1="84" x2="300" y2="94" stroke="#4ade80" stroke-width="1.2" stroke-opacity=".5"/>
  <polygon points="296,94 300,102 304,94" fill="#4ade80" fill-opacity=".5"/>
  <rect x="258" y="102" width="36" height="16" rx="3" fill="#4ade80" fill-opacity=".15" stroke="#4ade80" stroke-width="1" stroke-opacity=".5"/>
  <text x="276" y="114" text-anchor="middle" font-family="sans-serif" font-size="7" fill="#4ade80" font-weight="700">STEP 1</text>
  <rect x="302" y="102" width="36" height="16" rx="3" fill="#4ade80" fill-opacity=".15" stroke="#4ade80" stroke-width="1" stroke-opacity=".5"/>
  <text x="320" y="114" text-anchor="middle" font-family="sans-serif" font-size="7" fill="#4ade80" font-weight="700">STEP 2</text>
  <line x1="294" y1="110" x2="302" y2="110" stroke="#4ade80" stroke-width="1" stroke-opacity=".4"/>
  <line x1="244" y1="128" x2="368" y2="128" stroke="#4ade80" stroke-width=".8" stroke-opacity=".2"/>
  <line x1="244" y1="136" x2="350" y2="136" stroke="#4ade80" stroke-width=".8" stroke-opacity=".2"/>
  <line x1="272" y1="150" x2="262" y2="185" stroke="#1a3d1a" stroke-width="5" stroke-linecap="round"/>
  <line x1="352" y1="150" x2="362" y2="185" stroke="#1a3d1a" stroke-width="5" stroke-linecap="round"/>
  <g transform="translate(368, 152) rotate(-30)">
    <rect x="-5" y="-22" width="10" height="30" rx="3" fill="#ef4444"/>
    <polygon points="-5,8 5,8 0,20" fill="#fca5a5"/>
    <rect x="-5" y="-26" width="10" height="7" rx="2" fill="#b91c1c"/>
  </g>
  <rect x="22" y="25" width="72" height="22" rx="5" fill="#16a34a"/>
  <text x="58" y="40" text-anchor="middle" font-family="Arial,sans-serif" font-size="9" font-weight="900" fill="#fff" letter-spacing="1.5">WORKSHOP</text>
  <text x="22" y="84" font-family="Arial,sans-serif" font-size="26" font-weight="900" fill="#fff" letter-spacing="-1">실전 중심</text>
  <text x="22" y="112" font-family="Arial,sans-serif" font-size="18" font-weight="900" fill="#4ade80" letter-spacing="-0.5">워크샵</text>
  <text x="22" y="146" font-family="sans-serif" font-size="11.5" fill="rgba(255,255,255,.55)">이론이 아닌 실전으로 배우는</text>
  <text x="22" y="162" font-family="sans-serif" font-size="11.5" fill="rgba(255,255,255,.55)">핵심 스킬 집중 훈련</text>
  <rect x="22" y="192" width="36" height="3" rx="1.5" fill="#4ade80"/>
</svg>
